<?xml version="1.0" encoding="UTF-8" standalone="no"?>
<svg width="1047px" height="604px" viewBox="0 0 1047 604" version="1.1" xmlns="http://www.w3.org/2000/svg" xmlns:xlink="http://www.w3.org/1999/xlink">
    <!-- Generator: Sketch 3.6.1 (26313) - http://www.bohemiancoding.com/sketch -->
    <title>HCO Logo</title>
    <desc>Created with Sketch.</desc>
    <defs></defs>
    <g id="Page-1" stroke="none" stroke-width="1" fill="none" fill-rule="evenodd">
        <g id="Group">
            <text id="b" font-family="Georgia" font-size="200" font-weight="normal" letter-spacing="-1" fill="#fcfcfc">
                <tspan x="745" y="374">b</tspan>
            </text>
            <text id="n" font-family="Georgia" font-size="200" font-weight="normal" letter-spacing="2" fill="#fcfcfc">
                <tspan x="898" y="208">n</tspan>
            </text>
            <text id="O" font-family="Georgia" font-size="200" font-weight="normal" letter-spacing="-12" fill="#fcfcfc">
                <tspan x="270" y="542">O</tspan>
            </text>
            <text id="e" font-family="Georgia" font-size="200" font-weight="normal" letter-spacing="-12" fill="#fcfcfc">
                <tspan x="852" y="374">e</tspan>
            </text>
            <text id="C" font-family="Georgia" font-size="200" font-weight="normal" letter-spacing="-1" fill="#fcfcfc">
                <tspan x="221" y="374">C</tspan>
            </text>
            <text id="h" font-family="Georgia" font-size="200" font-weight="normal" letter-spacing="-1" fill="#fcfcfc">
                <tspan x="350" y="374">h</tspan>
            </text>
            <text id="a" font-family="Georgia" font-size="200" font-weight="normal" letter-spacing="-1" fill="#fcfcfc">
                <tspan x="467" y="374">a</tspan>
            </text>
            <text id="m" font-family="Georgia" font-size="200" font-weight="normal" letter-spacing="-1" fill="#fcfcfc">
                <tspan x="571" y="374">m</tspan>
            </text>
            <text id="H" font-family="Georgia" font-size="200" font-weight="normal" letter-spacing="2" fill="#fcfcfc">
                <tspan x="336" y="208">H</tspan>
            </text>
            <circle id="Purple-1-1" fill="#B33CA7" transform="translate(295.824146, 15.055435) rotate(-2.000000) translate(-295.824146, -15.055435) " cx="295.824146" cy="15.0554347" r="14"></circle>
            <circle id="Purple-1-2" fill="#B33CA7" transform="translate(297.080528, 51.033505) rotate(-2.000000) translate(-297.080528, -51.033505) " cx="297.080528" cy="51.0335045" r="14"></circle>
            <circle id="Blue-1-1" fill="#3F85C4" transform="translate(298.371809, 88.010965) rotate(-2.000000) translate(-298.371809, -88.010965) " cx="298.371809" cy="88.0109651" r="14"></circle>
            <circle id="Blue-1-2" fill="#3F85C4" transform="translate(299.628191, 123.989035) rotate(-2.000000) translate(-299.628191, -123.989035) " cx="299.628191" cy="123.989035" r="14"></circle>
            <circle id="Blue-1-3" fill="#3F85C4" transform="translate(300.919472, 160.966495) rotate(-2.000000) translate(-300.919472, -160.966495) " cx="300.919472" cy="160.966495" r="14"></circle>
            <circle id="Blue-1-4" fill="#3F85C4" transform="translate(302.175854, 196.944565) rotate(-2.000000) translate(-302.175854, -196.944565) " cx="302.175854" cy="196.944565" r="14"></circle>
            <circle id="Purple-2-1" fill="#B33CA7" transform="translate(180.764144, 43.634372) rotate(-26.000000) translate(-180.764144, -43.634372) " cx="180.764144" cy="43.6343716" r="14"></circle>
            <circle id="Purple-2-2" fill="#B33CA7" transform="translate(196.545506, 75.990957) rotate(-26.000000) translate(-196.545506, -75.990957) " cx="196.545506" cy="75.9909572" r="14"></circle>
            <circle id="Blue-2-1" fill="#3F85C4" transform="translate(212.765238, 109.246337) rotate(-26.000000) translate(-212.765238, -109.246337) " cx="212.765238" cy="109.246337" r="14"></circle>
            <circle id="Blue-2-2" fill="#3F85C4" transform="translate(228.546599, 141.602923) rotate(-26.000000) translate(-228.546599, -141.602923) " cx="228.546599" cy="141.602923" r="14"></circle>
            <circle id="Blue-2-3" fill="#3F85C4" transform="translate(244.766332, 174.858302) rotate(-26.000000) translate(-244.766332, -174.858302) " cx="244.766332" cy="174.858302" r="14"></circle>
            <circle id="Blue-2-4" fill="#3F85C4" transform="translate(260.547693, 207.214888) rotate(-26.000000) translate(-260.547693, -207.214888) " cx="260.547693" cy="207.214888" r="14"></circle>
            <circle id="Green-1-1" fill="#71B072" transform="translate(86.933515, 112.809199) rotate(-49.000000) translate(-86.933515, -112.809199) " cx="86.9335153" cy="112.809199" r="14"></circle>
            <circle id="Green-1-2" fill="#71B072" transform="translate(114.103060, 136.427324) rotate(-49.000000) translate(-114.103060, -136.427324) " cx="114.10306" cy="136.427324" r="14"></circle>
            <circle id="Green-1-3" fill="#71B072" transform="translate(142.027315, 160.701508) rotate(-49.000000) translate(-142.027315, -160.701508) " cx="142.027315" cy="160.701508" r="14"></circle>
            <circle id="Green-1-4" fill="#71B072" transform="translate(169.196860, 184.319633) rotate(-49.000000) translate(-169.196860, -184.319633) " cx="169.19686" cy="184.319633" r="14"></circle>
            <circle id="Green-1-5" fill="#71B072" transform="translate(197.121114, 208.593818) rotate(-49.000000) translate(-197.121114, -208.593818) " cx="197.121114" cy="208.593818" r="14"></circle>
            <circle id="Green-1-6" fill="#71B072" transform="translate(224.290659, 232.211943) rotate(-49.000000) translate(-224.290659, -232.211943) " cx="224.290659" cy="232.211943" r="14"></circle>
            <circle id="Green-2-1" fill="#71B072" transform="translate(26.405600, 215.846307) rotate(-73.000000) translate(-26.405600, -215.846307) " cx="26.4055995" cy="215.846307" r="14"></circle>
            <circle id="Green-2-2" fill="#71B072" transform="translate(60.832571, 226.371688) rotate(-73.000000) translate(-60.832571, -226.371688) " cx="60.8325708" cy="226.371688" r="14"></circle>
            <circle id="Green-2-3" fill="#71B072" transform="translate(96.215847, 237.189441) rotate(-73.000000) translate(-96.215847, -237.189441) " cx="96.2158467" cy="237.189441" r="14"></circle>
            <circle id="Green-2-4" fill="#71B072" transform="translate(130.642818, 247.714823) rotate(-73.000000) translate(-130.642818, -247.714823) " cx="130.642818" cy="247.714823" r="14"></circle>
            <circle id="Green-2-5" fill="#71B072" transform="translate(166.026094, 258.532576) rotate(-73.000000) translate(-166.026094, -258.532576) " cx="166.026094" cy="258.532576" r="14"></circle>
            <circle id="Green-2-6" fill="#71B072" transform="translate(200.453065, 269.057957) rotate(-73.000000) translate(-200.453065, -269.057957) " cx="200.453065" cy="269.057957" r="14"></circle>
            <circle id="Yellow-1-1" fill="#EEDF59" transform="translate(16.315784, 342.115658) rotate(-98.000000) translate(-16.315784, -342.115658) " cx="16.3157842" cy="342.115658" r="14"></circle>
            <circle id="Yellow-1-2" fill="#EEDF59" transform="translate(51.965435, 337.105427) rotate(-98.000000) translate(-51.965435, -337.105427) " cx="51.9654347" cy="337.105427" r="14"></circle>
            <circle id="Yellow-1-3" fill="#EEDF59" transform="translate(88.605353, 331.956022) rotate(-98.000000) translate(-88.605353, -331.956022) " cx="88.6053533" cy="331.956022" r="14"></circle>
            <circle id="Yellow-1-4" fill="#EEDF59" transform="translate(124.255004, 326.945790) rotate(-98.000000) translate(-124.255004, -326.945790) " cx="124.255004" cy="326.94579" r="14"></circle>
            <circle id="Yellow-1-5" fill="#EEDF59" transform="translate(160.894922, 321.796386) rotate(-98.000000) translate(-160.894922, -321.796386) " cx="160.894922" cy="321.796386" r="14"></circle>
            <circle id="Yellow-1-6" fill="#EEDF59" transform="translate(196.544573, 316.786154) rotate(-98.000000) translate(-196.544573, -316.786154) " cx="196.544573" cy="316.786154" r="14"></circle>
            <circle id="Yellow-2-1" fill="#EEDF59" transform="translate(50.695572, 448.846649) rotate(-121.000000) translate(-50.695572, -448.846649) " cx="50.6955721" cy="448.846649" r="14"></circle>
            <circle id="Yellow-2-2" fill="#EEDF59" transform="translate(81.553595, 430.305278) rotate(-121.000000) translate(-81.553595, -430.305278) " cx="81.5535949" cy="430.305278" r="14"></circle>
            <circle id="Yellow-2-3" fill="#EEDF59" transform="translate(113.268785, 411.248869) rotate(-121.000000) translate(-113.268785, -411.248869) " cx="113.268785" cy="411.248869" r="14"></circle>
            <circle id="Yellow-2-4" fill="#EEDF59" transform="translate(144.126808, 392.707499) rotate(-121.000000) translate(-144.126808, -392.707499) " cx="144.126808" cy="392.707499" r="14"></circle>
            <circle id="Yellow-2-5" fill="#EEDF59" transform="translate(175.841998, 373.651090) rotate(-121.000000) translate(-175.841998, -373.651090) " cx="175.841998" cy="373.65109" r="14"></circle>
            <circle id="Yellow-2-6" fill="#EEDF59" transform="translate(206.700021, 355.109719) rotate(-121.000000) translate(-206.700021, -355.109719) " cx="206.700021" cy="355.109719" r="14"></circle>
            <circle id="Red-1-1" fill="#ED6152" transform="translate(123.657228, 539.766378) rotate(-145.000000) translate(-123.657228, -539.766378) " cx="123.657228" cy="539.766378" r="14"></circle>
            <circle id="Red-1-2" fill="#ED6152" transform="translate(144.305979, 510.276904) rotate(-145.000000) translate(-144.305979, -510.276904) " cx="144.305979" cy="510.276904" r="14"></circle>
            <circle id="Red-1-3" fill="#ED6152" transform="translate(165.528308, 479.968279) rotate(-145.000000) translate(-165.528308, -479.968279) " cx="165.528308" cy="479.968279" r="14"></circle>
            <circle id="Red-1-4" fill="#ED6152" transform="translate(186.177059, 450.478805) rotate(-145.000000) translate(-186.177059, -450.478805) " cx="186.177059" cy="450.478805" r="14"></circle>
            <circle id="Red-1-5" fill="#ED6152" transform="translate(207.399387, 420.170180) rotate(-145.000000) translate(-207.399387, -420.170180) " cx="207.399387" cy="420.17018" r="14"></circle>
            <circle id="Red-1-6" fill="#ED6152" transform="translate(228.048139, 390.680706) rotate(-145.000000) translate(-228.048139, -390.680706) " cx="228.048139" cy="390.680706" r="14"></circle>
            <circle id="Red-2-1" fill="#ED6152" transform="translate(231.737812, 587.552818) rotate(-169.000000) translate(-231.737812, -587.552818) " cx="231.737812" cy="587.552818" r="14"></circle>
            <circle id="Red-2-2" fill="#ED6152" transform="translate(238.606936, 552.214239) rotate(-169.000000) translate(-238.606936, -552.214239) " cx="238.606936" cy="552.214239" r="14"></circle>
            <circle id="Red-2-3" fill="#ED6152" transform="translate(245.666869, 515.894033) rotate(-169.000000) translate(-245.666869, -515.894033) " cx="245.666869" cy="515.894033" r="14"></circle>
            <circle id="Red-2-4" fill="#ED6152" transform="translate(252.535993, 480.555455) rotate(-169.000000) translate(-252.535993, -480.555455) " cx="252.535993" cy="480.555455" r="14"></circle>
            <circle id="Red-2-5" fill="#ED6152" transform="translate(259.595926, 444.235249) rotate(-169.000000) translate(-259.595926, -444.235249) " cx="259.595926" cy="444.235249" r="14"></circle>
            <circle id="Red-2-6" fill="#ED6152" transform="translate(266.465049, 408.896670) rotate(-169.000000) translate(-266.465049, -408.896670) " cx="266.465049" cy="408.89667" r="14"></circle>
            <text id="i" font-family="Georgia" font-size="200" font-weight="normal" letter-spacing="2" fill="#fcfcfc">
                <tspan x="498" y="208">i</tspan>
            </text>
            <text id="t" font-family="Georgia" font-size="200" font-weight="normal" letter-spacing="2" fill="#fcfcfc">
                <tspan x="558" y="208">t</tspan>
            </text>
            <text id="c" font-family="Georgia" font-size="200" font-weight="normal" letter-spacing="2" fill="#fcfcfc">
                <tspan x="628" y="208">c</tspan>
            </text>
            <text id="h" font-family="Georgia" font-size="200" font-weight="normal" letter-spacing="2" fill="#fcfcfc">
                <tspan x="720" y="208">h</tspan>
            </text>
            <text id="i" font-family="Georgia" font-size="200" font-weight="normal" letter-spacing="2" fill="#fcfcfc">
                <tspan x="838" y="208">i</tspan>
            </text>
            <text id="r" font-family="Georgia" font-size="200" font-weight="normal" letter-spacing="-12" fill="#fcfcfc">
                <tspan x="940" y="374">r</tspan>
            </text>
            <text id="r" font-family="Georgia" font-size="200" font-weight="normal" letter-spacing="-12" fill="#fcfcfc">
                <tspan x="407" y="542">r</tspan>
            </text>
            <text id="c" font-family="Georgia" font-size="200" font-weight="normal" letter-spacing="-12" fill="#fcfcfc">
                <tspan x="477" y="542">c</tspan>
            </text>
            <text id="h" font-family="Georgia" font-size="200" font-weight="normal" letter-spacing="-12" fill="#fcfcfc">
                <tspan x="556" y="542">h</tspan>
            </text>
            <text id="e" font-family="Georgia" font-size="200" font-weight="normal" letter-spacing="-12" fill="#fcfcfc">
                <tspan x="655" y="542">e</tspan>
            </text>
            <text id="s" font-family="Georgia" font-size="200" font-weight="normal" letter-spacing="-12" fill="#fcfcfc">
                <tspan x="744" y="542">s</tspan>
            </text>
            <text id="t" font-family="Georgia" font-size="200" font-weight="normal" letter-spacing="-12" fill="#fcfcfc">
                <tspan x="820" y="542">t</tspan>
            </text>
            <text id="r" font-family="Georgia" font-size="200" font-weight="normal" letter-spacing="-12" fill="#fcfcfc">
                <tspan x="883" y="542">r</tspan>
            </text>
            <text id="a" font-family="Georgia" font-size="200" font-weight="normal" letter-spacing="-12" fill="#fcfcfc">
                <tspan x="956" y="542">a</tspan>
            </text>
        </g>
    </g>
</svg>